<mxfile host="app.diagrams.net" agent="Mozilla/5.0 (X11; Ubuntu; Linux x86_64; rv:137.0) Gecko/20100101 Firefox/137.0" version="26.2.14">
  <diagram name="Page-1" id="HocpeRsWMMNQ9Y8ETy28">
    <mxGraphModel dx="1356" dy="920" grid="1" gridSize="10" guides="1" tooltips="1" connect="1" arrows="1" fold="1" page="1" pageScale="1" pageWidth="850" pageHeight="1100" math="0" shadow="0">
      <root>
        <mxCell id="0" />
        <mxCell id="1" parent="0" />
        <mxCell id="f6q2FcYCSCNqq9xAJODr-2" value="1" style="whiteSpace=wrap;html=1;aspect=fixed;fillColor=#F19C99;strokeColor=#542726;fontColor=#542726;" parent="1" vertex="1">
          <mxGeometry x="240" y="240" width="40" height="40" as="geometry" />
        </mxCell>
        <mxCell id="f6q2FcYCSCNqq9xAJODr-3" value="0" style="whiteSpace=wrap;html=1;aspect=fixed;" parent="1" vertex="1">
          <mxGeometry x="280" y="240" width="40" height="40" as="geometry" />
        </mxCell>
        <mxCell id="f6q2FcYCSCNqq9xAJODr-4" value="0" style="whiteSpace=wrap;html=1;aspect=fixed;" parent="1" vertex="1">
          <mxGeometry x="320" y="240" width="40" height="40" as="geometry" />
        </mxCell>
        <mxCell id="f6q2FcYCSCNqq9xAJODr-5" value="0" style="whiteSpace=wrap;html=1;aspect=fixed;" parent="1" vertex="1">
          <mxGeometry x="360" y="240" width="40" height="40" as="geometry" />
        </mxCell>
        <mxCell id="f6q2FcYCSCNqq9xAJODr-6" value="0" style="whiteSpace=wrap;html=1;aspect=fixed;" parent="1" vertex="1">
          <mxGeometry x="400" y="240" width="40" height="40" as="geometry" />
        </mxCell>
        <mxCell id="f6q2FcYCSCNqq9xAJODr-7" value="0" style="whiteSpace=wrap;html=1;aspect=fixed;" parent="1" vertex="1">
          <mxGeometry x="440" y="240" width="40" height="40" as="geometry" />
        </mxCell>
        <mxCell id="f6q2FcYCSCNqq9xAJODr-8" value="0" style="whiteSpace=wrap;html=1;aspect=fixed;" parent="1" vertex="1">
          <mxGeometry x="480" y="240" width="40" height="40" as="geometry" />
        </mxCell>
        <mxCell id="f6q2FcYCSCNqq9xAJODr-9" value="0" style="whiteSpace=wrap;html=1;aspect=fixed;" parent="1" vertex="1">
          <mxGeometry x="520" y="240" width="40" height="40" as="geometry" />
        </mxCell>
        <mxCell id="f6q2FcYCSCNqq9xAJODr-66" value="&amp;lt;SOS&amp;gt;" style="text;html=1;align=center;verticalAlign=middle;whiteSpace=wrap;rounded=0;fontSize=16;" parent="1" vertex="1">
          <mxGeometry x="150" y="245" width="60" height="30" as="geometry" />
        </mxCell>
        <mxCell id="f6q2FcYCSCNqq9xAJODr-67" value="the" style="text;html=1;align=center;verticalAlign=middle;whiteSpace=wrap;rounded=0;fontSize=16;" parent="1" vertex="1">
          <mxGeometry x="150" y="285" width="60" height="30" as="geometry" />
        </mxCell>
        <mxCell id="f6q2FcYCSCNqq9xAJODr-68" value="quick" style="text;html=1;align=center;verticalAlign=middle;whiteSpace=wrap;rounded=0;fontSize=16;" parent="1" vertex="1">
          <mxGeometry x="150" y="325" width="60" height="30" as="geometry" />
        </mxCell>
        <mxCell id="f6q2FcYCSCNqq9xAJODr-69" value="brown" style="text;html=1;align=center;verticalAlign=middle;whiteSpace=wrap;rounded=0;fontSize=16;" parent="1" vertex="1">
          <mxGeometry x="150" y="365" width="60" height="30" as="geometry" />
        </mxCell>
        <mxCell id="f6q2FcYCSCNqq9xAJODr-70" value="fox" style="text;html=1;align=center;verticalAlign=middle;whiteSpace=wrap;rounded=0;fontSize=16;" parent="1" vertex="1">
          <mxGeometry x="150" y="405" width="60" height="30" as="geometry" />
        </mxCell>
        <mxCell id="f6q2FcYCSCNqq9xAJODr-71" value="jumped" style="text;html=1;align=center;verticalAlign=middle;whiteSpace=wrap;rounded=0;fontSize=16;" parent="1" vertex="1">
          <mxGeometry x="150" y="445" width="60" height="30" as="geometry" />
        </mxCell>
        <mxCell id="f6q2FcYCSCNqq9xAJODr-72" value="over" style="text;html=1;align=center;verticalAlign=middle;whiteSpace=wrap;rounded=0;fontSize=16;" parent="1" vertex="1">
          <mxGeometry x="150" y="485" width="60" height="30" as="geometry" />
        </mxCell>
        <mxCell id="f6q2FcYCSCNqq9xAJODr-97" value="the" style="text;html=1;align=center;verticalAlign=middle;whiteSpace=wrap;rounded=0;fontSize=16;" parent="1" vertex="1">
          <mxGeometry x="150" y="525" width="60" height="30" as="geometry" />
        </mxCell>
        <mxCell id="f6q2FcYCSCNqq9xAJODr-98" value="lazy" style="text;html=1;align=center;verticalAlign=middle;whiteSpace=wrap;rounded=0;fontSize=16;" parent="1" vertex="1">
          <mxGeometry x="150" y="565" width="60" height="30" as="geometry" />
        </mxCell>
        <mxCell id="f6q2FcYCSCNqq9xAJODr-99" value="dog" style="text;html=1;align=center;verticalAlign=middle;whiteSpace=wrap;rounded=0;fontSize=16;" parent="1" vertex="1">
          <mxGeometry x="150" y="605" width="60" height="30" as="geometry" />
        </mxCell>
        <mxCell id="f6q2FcYCSCNqq9xAJODr-100" value="&amp;lt;EOS&amp;gt;" style="text;html=1;align=center;verticalAlign=middle;whiteSpace=wrap;rounded=0;fontSize=16;" parent="1" vertex="1">
          <mxGeometry x="150" y="645" width="60" height="30" as="geometry" />
        </mxCell>
        <mxCell id="f6q2FcYCSCNqq9xAJODr-101" value="0" style="whiteSpace=wrap;html=1;aspect=fixed;" parent="1" vertex="1">
          <mxGeometry x="560" y="240" width="40" height="40" as="geometry" />
        </mxCell>
        <mxCell id="f6q2FcYCSCNqq9xAJODr-102" value="0" style="whiteSpace=wrap;html=1;aspect=fixed;" parent="1" vertex="1">
          <mxGeometry x="600" y="240" width="40" height="40" as="geometry" />
        </mxCell>
        <mxCell id="f6q2FcYCSCNqq9xAJODr-103" value="0" style="whiteSpace=wrap;html=1;aspect=fixed;" parent="1" vertex="1">
          <mxGeometry x="640" y="240" width="40" height="40" as="geometry" />
        </mxCell>
        <mxCell id="f6q2FcYCSCNqq9xAJODr-134" value="0" style="whiteSpace=wrap;html=1;aspect=fixed;" parent="1" vertex="1">
          <mxGeometry x="320" y="280" width="40" height="40" as="geometry" />
        </mxCell>
        <mxCell id="f6q2FcYCSCNqq9xAJODr-135" value="0" style="whiteSpace=wrap;html=1;aspect=fixed;" parent="1" vertex="1">
          <mxGeometry x="360" y="280" width="40" height="40" as="geometry" />
        </mxCell>
        <mxCell id="f6q2FcYCSCNqq9xAJODr-136" value="0" style="whiteSpace=wrap;html=1;aspect=fixed;" parent="1" vertex="1">
          <mxGeometry x="400" y="280" width="40" height="40" as="geometry" />
        </mxCell>
        <mxCell id="f6q2FcYCSCNqq9xAJODr-137" value="0" style="whiteSpace=wrap;html=1;aspect=fixed;" parent="1" vertex="1">
          <mxGeometry x="440" y="280" width="40" height="40" as="geometry" />
        </mxCell>
        <mxCell id="f6q2FcYCSCNqq9xAJODr-138" value="0" style="whiteSpace=wrap;html=1;aspect=fixed;" parent="1" vertex="1">
          <mxGeometry x="480" y="280" width="40" height="40" as="geometry" />
        </mxCell>
        <mxCell id="f6q2FcYCSCNqq9xAJODr-139" value="0" style="whiteSpace=wrap;html=1;aspect=fixed;" parent="1" vertex="1">
          <mxGeometry x="520" y="280" width="40" height="40" as="geometry" />
        </mxCell>
        <mxCell id="f6q2FcYCSCNqq9xAJODr-140" value="0" style="whiteSpace=wrap;html=1;aspect=fixed;" parent="1" vertex="1">
          <mxGeometry x="560" y="280" width="40" height="40" as="geometry" />
        </mxCell>
        <mxCell id="f6q2FcYCSCNqq9xAJODr-141" value="0" style="whiteSpace=wrap;html=1;aspect=fixed;" parent="1" vertex="1">
          <mxGeometry x="600" y="280" width="40" height="40" as="geometry" />
        </mxCell>
        <mxCell id="f6q2FcYCSCNqq9xAJODr-142" value="0" style="whiteSpace=wrap;html=1;aspect=fixed;" parent="1" vertex="1">
          <mxGeometry x="640" y="280" width="40" height="40" as="geometry" />
        </mxCell>
        <mxCell id="f6q2FcYCSCNqq9xAJODr-143" value="0" style="whiteSpace=wrap;html=1;aspect=fixed;" parent="1" vertex="1">
          <mxGeometry x="360" y="320" width="40" height="40" as="geometry" />
        </mxCell>
        <mxCell id="f6q2FcYCSCNqq9xAJODr-144" value="0" style="whiteSpace=wrap;html=1;aspect=fixed;" parent="1" vertex="1">
          <mxGeometry x="400" y="320" width="40" height="40" as="geometry" />
        </mxCell>
        <mxCell id="f6q2FcYCSCNqq9xAJODr-145" value="0" style="whiteSpace=wrap;html=1;aspect=fixed;" parent="1" vertex="1">
          <mxGeometry x="440" y="320" width="40" height="40" as="geometry" />
        </mxCell>
        <mxCell id="f6q2FcYCSCNqq9xAJODr-146" value="0" style="whiteSpace=wrap;html=1;aspect=fixed;" parent="1" vertex="1">
          <mxGeometry x="480" y="320" width="40" height="40" as="geometry" />
        </mxCell>
        <mxCell id="f6q2FcYCSCNqq9xAJODr-147" value="0" style="whiteSpace=wrap;html=1;aspect=fixed;" parent="1" vertex="1">
          <mxGeometry x="520" y="320" width="40" height="40" as="geometry" />
        </mxCell>
        <mxCell id="f6q2FcYCSCNqq9xAJODr-148" value="0" style="whiteSpace=wrap;html=1;aspect=fixed;" parent="1" vertex="1">
          <mxGeometry x="560" y="320" width="40" height="40" as="geometry" />
        </mxCell>
        <mxCell id="f6q2FcYCSCNqq9xAJODr-149" value="0" style="whiteSpace=wrap;html=1;aspect=fixed;" parent="1" vertex="1">
          <mxGeometry x="600" y="320" width="40" height="40" as="geometry" />
        </mxCell>
        <mxCell id="f6q2FcYCSCNqq9xAJODr-150" value="0" style="whiteSpace=wrap;html=1;aspect=fixed;" parent="1" vertex="1">
          <mxGeometry x="640" y="320" width="40" height="40" as="geometry" />
        </mxCell>
        <mxCell id="f6q2FcYCSCNqq9xAJODr-152" value="0" style="whiteSpace=wrap;html=1;aspect=fixed;" parent="1" vertex="1">
          <mxGeometry x="400" y="360" width="40" height="40" as="geometry" />
        </mxCell>
        <mxCell id="f6q2FcYCSCNqq9xAJODr-153" value="0" style="whiteSpace=wrap;html=1;aspect=fixed;" parent="1" vertex="1">
          <mxGeometry x="440" y="360" width="40" height="40" as="geometry" />
        </mxCell>
        <mxCell id="f6q2FcYCSCNqq9xAJODr-154" value="0" style="whiteSpace=wrap;html=1;aspect=fixed;" parent="1" vertex="1">
          <mxGeometry x="480" y="360" width="40" height="40" as="geometry" />
        </mxCell>
        <mxCell id="f6q2FcYCSCNqq9xAJODr-155" value="0" style="whiteSpace=wrap;html=1;aspect=fixed;" parent="1" vertex="1">
          <mxGeometry x="520" y="360" width="40" height="40" as="geometry" />
        </mxCell>
        <mxCell id="f6q2FcYCSCNqq9xAJODr-156" value="0" style="whiteSpace=wrap;html=1;aspect=fixed;" parent="1" vertex="1">
          <mxGeometry x="560" y="360" width="40" height="40" as="geometry" />
        </mxCell>
        <mxCell id="f6q2FcYCSCNqq9xAJODr-157" value="0" style="whiteSpace=wrap;html=1;aspect=fixed;" parent="1" vertex="1">
          <mxGeometry x="600" y="360" width="40" height="40" as="geometry" />
        </mxCell>
        <mxCell id="f6q2FcYCSCNqq9xAJODr-158" value="0" style="whiteSpace=wrap;html=1;aspect=fixed;" parent="1" vertex="1">
          <mxGeometry x="640" y="360" width="40" height="40" as="geometry" />
        </mxCell>
        <mxCell id="f6q2FcYCSCNqq9xAJODr-159" value="0" style="whiteSpace=wrap;html=1;aspect=fixed;" parent="1" vertex="1">
          <mxGeometry x="440" y="400" width="40" height="40" as="geometry" />
        </mxCell>
        <mxCell id="f6q2FcYCSCNqq9xAJODr-160" value="0" style="whiteSpace=wrap;html=1;aspect=fixed;" parent="1" vertex="1">
          <mxGeometry x="480" y="400" width="40" height="40" as="geometry" />
        </mxCell>
        <mxCell id="f6q2FcYCSCNqq9xAJODr-161" value="0" style="whiteSpace=wrap;html=1;aspect=fixed;" parent="1" vertex="1">
          <mxGeometry x="520" y="400" width="40" height="40" as="geometry" />
        </mxCell>
        <mxCell id="f6q2FcYCSCNqq9xAJODr-162" value="0" style="whiteSpace=wrap;html=1;aspect=fixed;" parent="1" vertex="1">
          <mxGeometry x="560" y="400" width="40" height="40" as="geometry" />
        </mxCell>
        <mxCell id="f6q2FcYCSCNqq9xAJODr-163" value="0" style="whiteSpace=wrap;html=1;aspect=fixed;" parent="1" vertex="1">
          <mxGeometry x="600" y="400" width="40" height="40" as="geometry" />
        </mxCell>
        <mxCell id="f6q2FcYCSCNqq9xAJODr-164" value="0" style="whiteSpace=wrap;html=1;aspect=fixed;" parent="1" vertex="1">
          <mxGeometry x="640" y="400" width="40" height="40" as="geometry" />
        </mxCell>
        <mxCell id="f6q2FcYCSCNqq9xAJODr-165" value="0" style="whiteSpace=wrap;html=1;aspect=fixed;" parent="1" vertex="1">
          <mxGeometry x="480" y="440" width="40" height="40" as="geometry" />
        </mxCell>
        <mxCell id="f6q2FcYCSCNqq9xAJODr-166" value="0" style="whiteSpace=wrap;html=1;aspect=fixed;" parent="1" vertex="1">
          <mxGeometry x="520" y="440" width="40" height="40" as="geometry" />
        </mxCell>
        <mxCell id="f6q2FcYCSCNqq9xAJODr-167" value="0" style="whiteSpace=wrap;html=1;aspect=fixed;" parent="1" vertex="1">
          <mxGeometry x="560" y="440" width="40" height="40" as="geometry" />
        </mxCell>
        <mxCell id="f6q2FcYCSCNqq9xAJODr-168" value="0" style="whiteSpace=wrap;html=1;aspect=fixed;" parent="1" vertex="1">
          <mxGeometry x="600" y="440" width="40" height="40" as="geometry" />
        </mxCell>
        <mxCell id="f6q2FcYCSCNqq9xAJODr-169" value="0" style="whiteSpace=wrap;html=1;aspect=fixed;" parent="1" vertex="1">
          <mxGeometry x="640" y="440" width="40" height="40" as="geometry" />
        </mxCell>
        <mxCell id="f6q2FcYCSCNqq9xAJODr-170" value="0" style="whiteSpace=wrap;html=1;aspect=fixed;" parent="1" vertex="1">
          <mxGeometry x="520" y="480" width="40" height="40" as="geometry" />
        </mxCell>
        <mxCell id="f6q2FcYCSCNqq9xAJODr-171" value="0" style="whiteSpace=wrap;html=1;aspect=fixed;" parent="1" vertex="1">
          <mxGeometry x="560" y="480" width="40" height="40" as="geometry" />
        </mxCell>
        <mxCell id="f6q2FcYCSCNqq9xAJODr-172" value="0" style="whiteSpace=wrap;html=1;aspect=fixed;" parent="1" vertex="1">
          <mxGeometry x="600" y="480" width="40" height="40" as="geometry" />
        </mxCell>
        <mxCell id="f6q2FcYCSCNqq9xAJODr-173" value="0" style="whiteSpace=wrap;html=1;aspect=fixed;" parent="1" vertex="1">
          <mxGeometry x="640" y="480" width="40" height="40" as="geometry" />
        </mxCell>
        <mxCell id="f6q2FcYCSCNqq9xAJODr-174" value="0" style="whiteSpace=wrap;html=1;aspect=fixed;" parent="1" vertex="1">
          <mxGeometry x="560" y="520" width="40" height="40" as="geometry" />
        </mxCell>
        <mxCell id="f6q2FcYCSCNqq9xAJODr-175" value="0" style="whiteSpace=wrap;html=1;aspect=fixed;" parent="1" vertex="1">
          <mxGeometry x="600" y="520" width="40" height="40" as="geometry" />
        </mxCell>
        <mxCell id="f6q2FcYCSCNqq9xAJODr-176" value="0" style="whiteSpace=wrap;html=1;aspect=fixed;" parent="1" vertex="1">
          <mxGeometry x="640" y="520" width="40" height="40" as="geometry" />
        </mxCell>
        <mxCell id="f6q2FcYCSCNqq9xAJODr-177" value="0" style="whiteSpace=wrap;html=1;aspect=fixed;" parent="1" vertex="1">
          <mxGeometry x="600" y="560" width="40" height="40" as="geometry" />
        </mxCell>
        <mxCell id="f6q2FcYCSCNqq9xAJODr-178" value="0" style="whiteSpace=wrap;html=1;aspect=fixed;" parent="1" vertex="1">
          <mxGeometry x="640" y="560" width="40" height="40" as="geometry" />
        </mxCell>
        <mxCell id="f6q2FcYCSCNqq9xAJODr-179" value="0" style="whiteSpace=wrap;html=1;aspect=fixed;" parent="1" vertex="1">
          <mxGeometry x="640" y="600" width="40" height="40" as="geometry" />
        </mxCell>
        <mxCell id="f6q2FcYCSCNqq9xAJODr-180" value="1" style="whiteSpace=wrap;html=1;aspect=fixed;fillColor=#fad9d5;strokeColor=#ae4132;fontColor=#B0504D;" parent="1" vertex="1">
          <mxGeometry x="240" y="280" width="40" height="40" as="geometry" />
        </mxCell>
        <mxCell id="f6q2FcYCSCNqq9xAJODr-181" value="1" style="whiteSpace=wrap;html=1;aspect=fixed;fillColor=#fad9d5;strokeColor=#ae4132;fontColor=#B0504D;" parent="1" vertex="1">
          <mxGeometry x="240" y="320" width="40" height="40" as="geometry" />
        </mxCell>
        <mxCell id="f6q2FcYCSCNqq9xAJODr-182" value="1" style="whiteSpace=wrap;html=1;aspect=fixed;fillColor=#fad9d5;strokeColor=#ae4132;fontColor=#B0504D;" parent="1" vertex="1">
          <mxGeometry x="240" y="360" width="40" height="40" as="geometry" />
        </mxCell>
        <mxCell id="f6q2FcYCSCNqq9xAJODr-183" value="1" style="whiteSpace=wrap;html=1;aspect=fixed;fillColor=#fad9d5;strokeColor=#ae4132;fontColor=#B0504D;" parent="1" vertex="1">
          <mxGeometry x="240" y="400" width="40" height="40" as="geometry" />
        </mxCell>
        <mxCell id="f6q2FcYCSCNqq9xAJODr-184" value="1" style="whiteSpace=wrap;html=1;aspect=fixed;fillColor=#fad9d5;strokeColor=#ae4132;fontColor=#B0504D;" parent="1" vertex="1">
          <mxGeometry x="240" y="440" width="40" height="40" as="geometry" />
        </mxCell>
        <mxCell id="f6q2FcYCSCNqq9xAJODr-185" value="1" style="whiteSpace=wrap;html=1;aspect=fixed;fillColor=#fad9d5;strokeColor=#ae4132;fontColor=#B0504D;" parent="1" vertex="1">
          <mxGeometry x="240" y="480" width="40" height="40" as="geometry" />
        </mxCell>
        <mxCell id="f6q2FcYCSCNqq9xAJODr-186" value="1" style="whiteSpace=wrap;html=1;aspect=fixed;fillColor=#fad9d5;strokeColor=#ae4132;fontColor=#B0504D;" parent="1" vertex="1">
          <mxGeometry x="240" y="520" width="40" height="40" as="geometry" />
        </mxCell>
        <mxCell id="f6q2FcYCSCNqq9xAJODr-187" value="1" style="whiteSpace=wrap;html=1;aspect=fixed;fillColor=#fad9d5;strokeColor=#ae4132;fontColor=#B0504D;" parent="1" vertex="1">
          <mxGeometry x="240" y="560" width="40" height="40" as="geometry" />
        </mxCell>
        <mxCell id="f6q2FcYCSCNqq9xAJODr-188" value="1" style="whiteSpace=wrap;html=1;aspect=fixed;fillColor=#fad9d5;strokeColor=#ae4132;fontColor=#B0504D;" parent="1" vertex="1">
          <mxGeometry x="240" y="600" width="40" height="40" as="geometry" />
        </mxCell>
        <mxCell id="f6q2FcYCSCNqq9xAJODr-189" value="1" style="whiteSpace=wrap;html=1;aspect=fixed;fillColor=#fad9d5;strokeColor=#ae4132;fontColor=#B0504D;" parent="1" vertex="1">
          <mxGeometry x="240" y="640" width="40" height="40" as="geometry" />
        </mxCell>
        <mxCell id="f6q2FcYCSCNqq9xAJODr-191" value="1" style="whiteSpace=wrap;html=1;aspect=fixed;fillColor=#F19C99;strokeColor=#542726;fontColor=#542726;" parent="1" vertex="1">
          <mxGeometry x="280" y="280" width="40" height="40" as="geometry" />
        </mxCell>
        <mxCell id="f6q2FcYCSCNqq9xAJODr-192" value="1" style="whiteSpace=wrap;html=1;aspect=fixed;fillColor=#fad9d5;strokeColor=#ae4132;fontColor=#B0504D;" parent="1" vertex="1">
          <mxGeometry x="280" y="320" width="40" height="40" as="geometry" />
        </mxCell>
        <mxCell id="f6q2FcYCSCNqq9xAJODr-193" value="1" style="whiteSpace=wrap;html=1;aspect=fixed;fillColor=#fad9d5;strokeColor=#ae4132;fontColor=#B0504D;" parent="1" vertex="1">
          <mxGeometry x="280" y="360" width="40" height="40" as="geometry" />
        </mxCell>
        <mxCell id="f6q2FcYCSCNqq9xAJODr-194" value="1" style="whiteSpace=wrap;html=1;aspect=fixed;fillColor=#fad9d5;strokeColor=#ae4132;fontColor=#B0504D;" parent="1" vertex="1">
          <mxGeometry x="280" y="400" width="40" height="40" as="geometry" />
        </mxCell>
        <mxCell id="f6q2FcYCSCNqq9xAJODr-195" value="1" style="whiteSpace=wrap;html=1;aspect=fixed;fillColor=#fad9d5;strokeColor=#ae4132;fontColor=#B0504D;" parent="1" vertex="1">
          <mxGeometry x="280" y="440" width="40" height="40" as="geometry" />
        </mxCell>
        <mxCell id="f6q2FcYCSCNqq9xAJODr-196" value="1" style="whiteSpace=wrap;html=1;aspect=fixed;fillColor=#fad9d5;strokeColor=#ae4132;fontColor=#B0504D;" parent="1" vertex="1">
          <mxGeometry x="280" y="480" width="40" height="40" as="geometry" />
        </mxCell>
        <mxCell id="f6q2FcYCSCNqq9xAJODr-197" value="1" style="whiteSpace=wrap;html=1;aspect=fixed;fillColor=#fad9d5;strokeColor=#ae4132;fontColor=#B0504D;" parent="1" vertex="1">
          <mxGeometry x="280" y="520" width="40" height="40" as="geometry" />
        </mxCell>
        <mxCell id="f6q2FcYCSCNqq9xAJODr-198" value="1" style="whiteSpace=wrap;html=1;aspect=fixed;fillColor=#fad9d5;strokeColor=#ae4132;fontColor=#B0504D;" parent="1" vertex="1">
          <mxGeometry x="280" y="560" width="40" height="40" as="geometry" />
        </mxCell>
        <mxCell id="f6q2FcYCSCNqq9xAJODr-199" value="1" style="whiteSpace=wrap;html=1;aspect=fixed;fillColor=#fad9d5;strokeColor=#ae4132;fontColor=#B0504D;" parent="1" vertex="1">
          <mxGeometry x="280" y="600" width="40" height="40" as="geometry" />
        </mxCell>
        <mxCell id="f6q2FcYCSCNqq9xAJODr-200" value="1" style="whiteSpace=wrap;html=1;aspect=fixed;fillColor=#fad9d5;strokeColor=#ae4132;fontColor=#B0504D;" parent="1" vertex="1">
          <mxGeometry x="280" y="640" width="40" height="40" as="geometry" />
        </mxCell>
        <mxCell id="f6q2FcYCSCNqq9xAJODr-201" value="1" style="whiteSpace=wrap;html=1;aspect=fixed;fillColor=#F19C99;strokeColor=#542726;fontColor=#542726;" parent="1" vertex="1">
          <mxGeometry x="320" y="320" width="40" height="40" as="geometry" />
        </mxCell>
        <mxCell id="f6q2FcYCSCNqq9xAJODr-202" value="1" style="whiteSpace=wrap;html=1;aspect=fixed;fillColor=#fad9d5;strokeColor=#ae4132;fontColor=#B0504D;" parent="1" vertex="1">
          <mxGeometry x="320" y="360" width="40" height="40" as="geometry" />
        </mxCell>
        <mxCell id="f6q2FcYCSCNqq9xAJODr-203" value="1" style="whiteSpace=wrap;html=1;aspect=fixed;fillColor=#fad9d5;strokeColor=#ae4132;fontColor=#B0504D;" parent="1" vertex="1">
          <mxGeometry x="320" y="400" width="40" height="40" as="geometry" />
        </mxCell>
        <mxCell id="f6q2FcYCSCNqq9xAJODr-204" value="1" style="whiteSpace=wrap;html=1;aspect=fixed;fillColor=#fad9d5;strokeColor=#ae4132;fontColor=#B0504D;" parent="1" vertex="1">
          <mxGeometry x="320" y="440" width="40" height="40" as="geometry" />
        </mxCell>
        <mxCell id="f6q2FcYCSCNqq9xAJODr-205" value="1" style="whiteSpace=wrap;html=1;aspect=fixed;fillColor=#fad9d5;strokeColor=#ae4132;fontColor=#B0504D;" parent="1" vertex="1">
          <mxGeometry x="320" y="480" width="40" height="40" as="geometry" />
        </mxCell>
        <mxCell id="f6q2FcYCSCNqq9xAJODr-206" value="1" style="whiteSpace=wrap;html=1;aspect=fixed;fillColor=#fad9d5;strokeColor=#ae4132;fontColor=#B0504D;" parent="1" vertex="1">
          <mxGeometry x="320" y="520" width="40" height="40" as="geometry" />
        </mxCell>
        <mxCell id="f6q2FcYCSCNqq9xAJODr-207" value="1" style="whiteSpace=wrap;html=1;aspect=fixed;fillColor=#fad9d5;strokeColor=#ae4132;fontColor=#B0504D;" parent="1" vertex="1">
          <mxGeometry x="320" y="560" width="40" height="40" as="geometry" />
        </mxCell>
        <mxCell id="f6q2FcYCSCNqq9xAJODr-208" value="1" style="whiteSpace=wrap;html=1;aspect=fixed;fillColor=#fad9d5;strokeColor=#ae4132;fontColor=#B0504D;" parent="1" vertex="1">
          <mxGeometry x="320" y="600" width="40" height="40" as="geometry" />
        </mxCell>
        <mxCell id="f6q2FcYCSCNqq9xAJODr-209" value="1" style="whiteSpace=wrap;html=1;aspect=fixed;fillColor=#fad9d5;strokeColor=#ae4132;fontColor=#B0504D;" parent="1" vertex="1">
          <mxGeometry x="320" y="640" width="40" height="40" as="geometry" />
        </mxCell>
        <mxCell id="f6q2FcYCSCNqq9xAJODr-210" value="1" style="whiteSpace=wrap;html=1;aspect=fixed;fillColor=#F19C99;strokeColor=#542726;fontColor=#542726;" parent="1" vertex="1">
          <mxGeometry x="360" y="360" width="40" height="40" as="geometry" />
        </mxCell>
        <mxCell id="f6q2FcYCSCNqq9xAJODr-211" value="1" style="whiteSpace=wrap;html=1;aspect=fixed;fillColor=#fad9d5;strokeColor=#ae4132;fontColor=#B0504D;" parent="1" vertex="1">
          <mxGeometry x="360" y="400" width="40" height="40" as="geometry" />
        </mxCell>
        <mxCell id="f6q2FcYCSCNqq9xAJODr-212" value="1" style="whiteSpace=wrap;html=1;aspect=fixed;fillColor=#fad9d5;strokeColor=#ae4132;fontColor=#B0504D;" parent="1" vertex="1">
          <mxGeometry x="360" y="440" width="40" height="40" as="geometry" />
        </mxCell>
        <mxCell id="f6q2FcYCSCNqq9xAJODr-213" value="1" style="whiteSpace=wrap;html=1;aspect=fixed;fillColor=#fad9d5;strokeColor=#ae4132;fontColor=#B0504D;" parent="1" vertex="1">
          <mxGeometry x="360" y="480" width="40" height="40" as="geometry" />
        </mxCell>
        <mxCell id="f6q2FcYCSCNqq9xAJODr-214" value="1" style="whiteSpace=wrap;html=1;aspect=fixed;fillColor=#fad9d5;strokeColor=#ae4132;fontColor=#B0504D;" parent="1" vertex="1">
          <mxGeometry x="360" y="520" width="40" height="40" as="geometry" />
        </mxCell>
        <mxCell id="f6q2FcYCSCNqq9xAJODr-215" value="1" style="whiteSpace=wrap;html=1;aspect=fixed;fillColor=#fad9d5;strokeColor=#ae4132;fontColor=#B0504D;" parent="1" vertex="1">
          <mxGeometry x="360" y="560" width="40" height="40" as="geometry" />
        </mxCell>
        <mxCell id="f6q2FcYCSCNqq9xAJODr-216" value="1" style="whiteSpace=wrap;html=1;aspect=fixed;fillColor=#fad9d5;strokeColor=#ae4132;fontColor=#B0504D;" parent="1" vertex="1">
          <mxGeometry x="360" y="600" width="40" height="40" as="geometry" />
        </mxCell>
        <mxCell id="f6q2FcYCSCNqq9xAJODr-217" value="1" style="whiteSpace=wrap;html=1;aspect=fixed;fillColor=#fad9d5;strokeColor=#ae4132;fontColor=#B0504D;" parent="1" vertex="1">
          <mxGeometry x="360" y="640" width="40" height="40" as="geometry" />
        </mxCell>
        <mxCell id="f6q2FcYCSCNqq9xAJODr-218" value="1" style="whiteSpace=wrap;html=1;aspect=fixed;fillColor=#F19C99;strokeColor=#542726;fontColor=#542726;" parent="1" vertex="1">
          <mxGeometry x="400" y="400" width="40" height="40" as="geometry" />
        </mxCell>
        <mxCell id="f6q2FcYCSCNqq9xAJODr-219" value="1" style="whiteSpace=wrap;html=1;aspect=fixed;fillColor=#fad9d5;strokeColor=#ae4132;fontColor=#B0504D;" parent="1" vertex="1">
          <mxGeometry x="400" y="440" width="40" height="40" as="geometry" />
        </mxCell>
        <mxCell id="f6q2FcYCSCNqq9xAJODr-220" value="1" style="whiteSpace=wrap;html=1;aspect=fixed;fillColor=#fad9d5;strokeColor=#ae4132;fontColor=#B0504D;" parent="1" vertex="1">
          <mxGeometry x="400" y="480" width="40" height="40" as="geometry" />
        </mxCell>
        <mxCell id="f6q2FcYCSCNqq9xAJODr-221" value="1" style="whiteSpace=wrap;html=1;aspect=fixed;fillColor=#fad9d5;strokeColor=#ae4132;fontColor=#B0504D;" parent="1" vertex="1">
          <mxGeometry x="400" y="520" width="40" height="40" as="geometry" />
        </mxCell>
        <mxCell id="f6q2FcYCSCNqq9xAJODr-222" value="1" style="whiteSpace=wrap;html=1;aspect=fixed;fillColor=#fad9d5;strokeColor=#ae4132;fontColor=#B0504D;" parent="1" vertex="1">
          <mxGeometry x="400" y="560" width="40" height="40" as="geometry" />
        </mxCell>
        <mxCell id="f6q2FcYCSCNqq9xAJODr-223" value="1" style="whiteSpace=wrap;html=1;aspect=fixed;fillColor=#fad9d5;strokeColor=#ae4132;fontColor=#B0504D;" parent="1" vertex="1">
          <mxGeometry x="400" y="600" width="40" height="40" as="geometry" />
        </mxCell>
        <mxCell id="f6q2FcYCSCNqq9xAJODr-224" value="1" style="whiteSpace=wrap;html=1;aspect=fixed;fillColor=#fad9d5;strokeColor=#ae4132;fontColor=#B0504D;" parent="1" vertex="1">
          <mxGeometry x="400" y="640" width="40" height="40" as="geometry" />
        </mxCell>
        <mxCell id="f6q2FcYCSCNqq9xAJODr-225" value="1" style="whiteSpace=wrap;html=1;aspect=fixed;fillColor=#F19C99;strokeColor=#542726;fontColor=#542726;" parent="1" vertex="1">
          <mxGeometry x="440" y="440" width="40" height="40" as="geometry" />
        </mxCell>
        <mxCell id="f6q2FcYCSCNqq9xAJODr-226" value="1" style="whiteSpace=wrap;html=1;aspect=fixed;fillColor=#fad9d5;strokeColor=#ae4132;fontColor=#B0504D;" parent="1" vertex="1">
          <mxGeometry x="440" y="480" width="40" height="40" as="geometry" />
        </mxCell>
        <mxCell id="f6q2FcYCSCNqq9xAJODr-227" value="1" style="whiteSpace=wrap;html=1;aspect=fixed;fillColor=#fad9d5;strokeColor=#ae4132;fontColor=#B0504D;" parent="1" vertex="1">
          <mxGeometry x="440" y="520" width="40" height="40" as="geometry" />
        </mxCell>
        <mxCell id="f6q2FcYCSCNqq9xAJODr-228" value="1" style="whiteSpace=wrap;html=1;aspect=fixed;fillColor=#fad9d5;strokeColor=#ae4132;fontColor=#B0504D;" parent="1" vertex="1">
          <mxGeometry x="440" y="560" width="40" height="40" as="geometry" />
        </mxCell>
        <mxCell id="f6q2FcYCSCNqq9xAJODr-229" value="1" style="whiteSpace=wrap;html=1;aspect=fixed;fillColor=#fad9d5;strokeColor=#ae4132;fontColor=#B0504D;" parent="1" vertex="1">
          <mxGeometry x="440" y="600" width="40" height="40" as="geometry" />
        </mxCell>
        <mxCell id="f6q2FcYCSCNqq9xAJODr-230" value="1" style="whiteSpace=wrap;html=1;aspect=fixed;fillColor=#fad9d5;strokeColor=#ae4132;fontColor=#B0504D;" parent="1" vertex="1">
          <mxGeometry x="440" y="640" width="40" height="40" as="geometry" />
        </mxCell>
        <mxCell id="f6q2FcYCSCNqq9xAJODr-231" value="1" style="whiteSpace=wrap;html=1;aspect=fixed;fillColor=#F19C99;strokeColor=#542726;fontColor=#542726;" parent="1" vertex="1">
          <mxGeometry x="480" y="480" width="40" height="40" as="geometry" />
        </mxCell>
        <mxCell id="f6q2FcYCSCNqq9xAJODr-232" value="1" style="whiteSpace=wrap;html=1;aspect=fixed;fillColor=#fad9d5;strokeColor=#ae4132;fontColor=#B0504D;" parent="1" vertex="1">
          <mxGeometry x="480" y="520" width="40" height="40" as="geometry" />
        </mxCell>
        <mxCell id="f6q2FcYCSCNqq9xAJODr-233" value="1" style="whiteSpace=wrap;html=1;aspect=fixed;fillColor=#fad9d5;strokeColor=#ae4132;fontColor=#B0504D;" parent="1" vertex="1">
          <mxGeometry x="480" y="560" width="40" height="40" as="geometry" />
        </mxCell>
        <mxCell id="f6q2FcYCSCNqq9xAJODr-234" value="1" style="whiteSpace=wrap;html=1;aspect=fixed;fillColor=#fad9d5;strokeColor=#ae4132;fontColor=#B0504D;" parent="1" vertex="1">
          <mxGeometry x="480" y="600" width="40" height="40" as="geometry" />
        </mxCell>
        <mxCell id="f6q2FcYCSCNqq9xAJODr-235" value="1" style="whiteSpace=wrap;html=1;aspect=fixed;fillColor=#fad9d5;strokeColor=#ae4132;fontColor=#B0504D;" parent="1" vertex="1">
          <mxGeometry x="480" y="640" width="40" height="40" as="geometry" />
        </mxCell>
        <mxCell id="f6q2FcYCSCNqq9xAJODr-236" value="1" style="whiteSpace=wrap;html=1;aspect=fixed;fillColor=#F19C99;strokeColor=#542726;fontColor=#542726;" parent="1" vertex="1">
          <mxGeometry x="520" y="520" width="40" height="40" as="geometry" />
        </mxCell>
        <mxCell id="f6q2FcYCSCNqq9xAJODr-237" value="1" style="whiteSpace=wrap;html=1;aspect=fixed;fillColor=#fad9d5;strokeColor=#ae4132;fontColor=#B0504D;" parent="1" vertex="1">
          <mxGeometry x="520" y="560" width="40" height="40" as="geometry" />
        </mxCell>
        <mxCell id="f6q2FcYCSCNqq9xAJODr-238" value="1" style="whiteSpace=wrap;html=1;aspect=fixed;fillColor=#fad9d5;strokeColor=#ae4132;fontColor=#B0504D;" parent="1" vertex="1">
          <mxGeometry x="520" y="600" width="40" height="40" as="geometry" />
        </mxCell>
        <mxCell id="f6q2FcYCSCNqq9xAJODr-239" value="1" style="whiteSpace=wrap;html=1;aspect=fixed;fillColor=#fad9d5;strokeColor=#ae4132;fontColor=#B0504D;" parent="1" vertex="1">
          <mxGeometry x="520" y="640" width="40" height="40" as="geometry" />
        </mxCell>
        <mxCell id="f6q2FcYCSCNqq9xAJODr-240" value="1" style="whiteSpace=wrap;html=1;aspect=fixed;fillColor=#F19C99;strokeColor=#542726;fontColor=#542726;" parent="1" vertex="1">
          <mxGeometry x="560" y="560" width="40" height="40" as="geometry" />
        </mxCell>
        <mxCell id="f6q2FcYCSCNqq9xAJODr-241" value="1" style="whiteSpace=wrap;html=1;aspect=fixed;fillColor=#fad9d5;strokeColor=#ae4132;fontColor=#B0504D;" parent="1" vertex="1">
          <mxGeometry x="560" y="600" width="40" height="40" as="geometry" />
        </mxCell>
        <mxCell id="f6q2FcYCSCNqq9xAJODr-242" value="1" style="whiteSpace=wrap;html=1;aspect=fixed;fillColor=#fad9d5;strokeColor=#ae4132;fontColor=#B0504D;" parent="1" vertex="1">
          <mxGeometry x="560" y="640" width="40" height="40" as="geometry" />
        </mxCell>
        <mxCell id="f6q2FcYCSCNqq9xAJODr-243" value="1" style="whiteSpace=wrap;html=1;aspect=fixed;fillColor=#F19C99;strokeColor=#542726;fontColor=#542726;" parent="1" vertex="1">
          <mxGeometry x="600" y="600" width="40" height="40" as="geometry" />
        </mxCell>
        <mxCell id="f6q2FcYCSCNqq9xAJODr-244" value="1" style="whiteSpace=wrap;html=1;aspect=fixed;fillColor=#fad9d5;strokeColor=#ae4132;fontColor=#B0504D;" parent="1" vertex="1">
          <mxGeometry x="600" y="640" width="40" height="40" as="geometry" />
        </mxCell>
        <mxCell id="f6q2FcYCSCNqq9xAJODr-245" value="1" style="whiteSpace=wrap;html=1;aspect=fixed;fillColor=#F19C99;strokeColor=#542726;fontColor=#542726;" parent="1" vertex="1">
          <mxGeometry x="640" y="640" width="40" height="40" as="geometry" />
        </mxCell>
        <mxCell id="f6q2FcYCSCNqq9xAJODr-246" value="&amp;lt;SOS&amp;gt;" style="text;html=1;align=center;verticalAlign=middle;whiteSpace=wrap;rounded=0;direction=west;rotation=-60;fontSize=17;" parent="1" vertex="1">
          <mxGeometry x="230" y="175" width="60" height="30" as="geometry" />
        </mxCell>
        <mxCell id="f6q2FcYCSCNqq9xAJODr-247" value="the" style="text;html=1;align=center;verticalAlign=middle;whiteSpace=wrap;rounded=0;direction=east;rotation=-60;fontSize=17;" parent="1" vertex="1">
          <mxGeometry x="270" y="175" width="60" height="30" as="geometry" />
        </mxCell>
        <mxCell id="f6q2FcYCSCNqq9xAJODr-248" value="quick" style="text;html=1;align=center;verticalAlign=middle;whiteSpace=wrap;rounded=0;direction=east;rotation=-60;fontSize=17;" parent="1" vertex="1">
          <mxGeometry x="310" y="175" width="60" height="30" as="geometry" />
        </mxCell>
        <mxCell id="f6q2FcYCSCNqq9xAJODr-249" value="brown" style="text;html=1;align=center;verticalAlign=middle;whiteSpace=wrap;rounded=0;direction=east;rotation=300;fontSize=17;" parent="1" vertex="1">
          <mxGeometry x="350" y="175" width="60" height="30" as="geometry" />
        </mxCell>
        <mxCell id="f6q2FcYCSCNqq9xAJODr-250" value="fox" style="text;html=1;align=center;verticalAlign=middle;whiteSpace=wrap;rounded=0;direction=east;rotation=300;fontSize=17;" parent="1" vertex="1">
          <mxGeometry x="390" y="175" width="60" height="30" as="geometry" />
        </mxCell>
        <mxCell id="f6q2FcYCSCNqq9xAJODr-251" value="jumped" style="text;html=1;align=center;verticalAlign=middle;whiteSpace=wrap;rounded=0;direction=east;rotation=300;fontSize=17;" parent="1" vertex="1">
          <mxGeometry x="430" y="175" width="60" height="30" as="geometry" />
        </mxCell>
        <mxCell id="f6q2FcYCSCNqq9xAJODr-252" value="over" style="text;html=1;align=center;verticalAlign=middle;whiteSpace=wrap;rounded=0;direction=east;rotation=300;fontSize=17;" parent="1" vertex="1">
          <mxGeometry x="470" y="175" width="60" height="30" as="geometry" />
        </mxCell>
        <mxCell id="f6q2FcYCSCNqq9xAJODr-253" value="the" style="text;html=1;align=center;verticalAlign=middle;whiteSpace=wrap;rounded=0;direction=east;rotation=300;fontSize=17;" parent="1" vertex="1">
          <mxGeometry x="510" y="175" width="60" height="30" as="geometry" />
        </mxCell>
        <mxCell id="f6q2FcYCSCNqq9xAJODr-254" value="lazy" style="text;html=1;align=center;verticalAlign=middle;whiteSpace=wrap;rounded=0;direction=east;rotation=300;fontSize=17;" parent="1" vertex="1">
          <mxGeometry x="550" y="175" width="60" height="30" as="geometry" />
        </mxCell>
        <mxCell id="f6q2FcYCSCNqq9xAJODr-255" value="dog" style="text;html=1;align=center;verticalAlign=middle;whiteSpace=wrap;rounded=0;direction=east;rotation=300;fontSize=17;" parent="1" vertex="1">
          <mxGeometry x="590" y="175" width="60" height="30" as="geometry" />
        </mxCell>
        <mxCell id="f6q2FcYCSCNqq9xAJODr-256" value="&amp;lt;EOS&amp;gt;" style="text;html=1;align=center;verticalAlign=middle;whiteSpace=wrap;rounded=0;direction=east;rotation=300;fontSize=17;" parent="1" vertex="1">
          <mxGeometry x="630" y="175" width="60" height="30" as="geometry" />
        </mxCell>
      </root>
    </mxGraphModel>
  </diagram>
</mxfile>
